<svg xmlns="http://www.w3.org/2000/svg" data-name="Layer 1" width="571.75671" height="700.46347" viewBox="0 0 571.75671 700.46347" xmlns:xlink="http://www.w3.org/1999/xlink">
<path d="M698.7525,180.275c.345-44.18146-28.476-80.2248-64.37336-80.5051s-65.27769,35.30857-65.62268,79.49c-.31277,40.05573,23.34783,73.42112,54.52046,79.51237l-2.15206,12.89936,23.82252.186L642.997,258.92628C674.261,253.32257,698.43972,220.33073,698.7525,180.275Z" transform="translate(-314.12165 -99.76826)" fill="#22C55E"/>
<path d="M590.59182,200.43107l-8.99973-.07027a146.49361,146.49361,0,0,1,.39823-50.99845l8.99972.07028Q584.94116,175.83637,590.59182,200.43107Z" transform="translate(-314.12165 -99.76826)" fill="#fff"/>
<path d="M823.82828,204.66981c3.498-44.04411-22.67651-82.05289-58.46226-84.895s-67.63166,30.55863-71.12967,74.60274C691.065,234.30874,712.28343,269.278,742.9417,277.579l-3.06739,12.71282,23.74847,1.88612-1.02227-13.03763C794.18471,275.78268,820.65691,244.601,823.82828,204.66981Z" transform="translate(-314.12165 -99.76826)" fill="#FF0000"/>
<path d="M714.50469,217.05338l-8.97175-.71254a146.4936,146.4936,0,0,1,4.03774-50.83991l8.97175.71254Q710.62414,192.11805,714.50469,217.05338Z" transform="translate(-314.12165 -99.76826)" fill="#fff"/>

<rect x="739.04026" y="278.26627" width="27" height="6" transform="translate(-289.4912 -158.46502) rotate(4.54094)" fill="#3f3d56"/>
<rect x="466.79411" y="439.17102" width="376.13849" height="3.0002" transform="translate(-377.12196 669.09304) rotate(-58.50618)" fill="#3f3d56"/>
<path d="M874.62251,247.9391c20.78829-38.98675,11.96138-84.2842-19.71528-101.17464s-74.208,1.02208-94.99628,40.00883c-18.847,35.34612-13.351,75.87841,11.44542,95.72721l-7.887,10.4317,21.02155,11.209,4.26692-12.362C819.057,301.30811,855.77547,283.28522,874.62251,247.9391Z" transform="translate(-314.12165 -99.76826)" fill="#2b66e6"/>
<path d="M769.443,215.65476l-7.94157-4.23456A146.4937,146.4937,0,0,1,785.49729,166.418l7.94157,4.23456Q775.83846,191.24312,769.443,215.65476Z" transform="translate(-314.12165 -99.76826)" fill="#fff"/>

<rect x="765.18522" y="286.71272" width="27" height="6" transform="translate(-86.23403 -432.07333) rotate(28.06716)" fill="#3f3d56"/>
<rect x="479.38779" y="441.3691" width="376.13796" height="3.0001" transform="translate(-397.45648 622.28469) rotate(-53.96275)" fill="#3f3d56"/>
<rect x="415.30797" y="445.48174" width="376.13841" height="2.9998" transform="matrix(0.17486, -0.98459, 0.98459, 0.17486, -256.3467, 863.1347)" fill="#3f3d56"/>
</svg>